<svg width="136" height="24" viewBox="0 0 136 24" fill="none" xmlns="http://www.w3.org/2000/svg">
<path d="M122.222 19.3439C122.154 19.334 122.063 19.3202 121.954 19.3063C121.535 19.2469 121.218 18.9816 121.218 18.3916V12.4518C121.218 12.3488 121.19 12.2775 121.115 12.232C121.016 12.1726 120.931 12.2043 120.838 12.2498L118.78 13.2576C118.689 13.3031 118.666 13.3685 118.674 13.4516C118.681 13.5407 118.715 13.5962 118.828 13.6259L119.242 13.7407C119.592 13.8377 119.725 14.0595 119.725 14.7901V18.3896C119.725 18.9796 119.408 19.2449 118.988 19.3043C118.879 19.3202 118.788 19.332 118.721 19.3419C118.632 19.3558 118.577 19.4172 118.577 19.4904V19.734C119.834 19.6607 121.111 19.6607 122.368 19.734V19.4904C122.368 19.4152 122.313 19.3538 122.224 19.3419L122.222 19.3439Z" fill="#231815"/>
<path d="M120.469 10.4065C120.992 10.4065 121.418 9.98284 121.418 9.45816C121.418 8.93347 120.992 8.50977 120.469 8.50977C119.947 8.50977 119.521 8.93347 119.521 9.45816C119.521 9.98284 119.945 10.4065 120.469 10.4065Z" fill="#231815"/>
<path d="M51.5813 19.3439C51.514 19.334 51.423 19.3202 51.3141 19.3063C50.8943 19.2469 50.5775 18.9816 50.5775 18.3916V12.4518C50.5775 12.3488 50.5498 12.2775 50.4746 12.232C50.3756 12.1726 50.2904 12.2043 50.1974 12.2498L48.1402 13.2576C48.0491 13.3031 48.0254 13.3685 48.0333 13.4516C48.0412 13.5407 48.0749 13.5962 48.1858 13.6259L48.6015 13.7407C48.952 13.8377 49.0846 14.0595 49.0846 14.7901V18.3896C49.0846 18.9796 48.7679 19.2449 48.3481 19.3043C48.2392 19.3202 48.1481 19.332 48.0808 19.3419C47.9917 19.3558 47.9363 19.4172 47.9363 19.4904V19.734C49.1935 19.6607 50.4706 19.6607 51.7279 19.734V19.4904C51.7279 19.4152 51.6724 19.3538 51.5833 19.3419L51.5813 19.3439Z" fill="#231815"/>
<path d="M49.8291 10.4065C50.3518 10.4065 50.7775 9.98284 50.7775 9.45816C50.7775 8.93347 50.3538 8.50977 49.8291 8.50977C49.3044 8.50977 48.8807 8.93347 48.8807 9.45816C48.8807 9.98284 49.3044 10.4065 49.8291 10.4065Z" fill="#231815"/>
<path d="M101.646 12.1985C99.6325 12.1985 98.0287 13.929 98.0287 16.0653C98.0287 18.3759 99.5889 19.9321 101.7 19.9321C102.725 19.9321 103.588 19.4728 104.182 18.7402C104.432 18.4313 104.456 18.3264 104.349 18.2314C104.248 18.1403 104.123 18.2393 103.782 18.4828C103.321 18.8115 102.668 18.9996 102.139 18.9996C101.131 18.9996 99.9671 18.3205 99.5869 16.9107C99.4345 16.3445 99.3929 15.7525 99.4483 15.1941H104.129C104.264 15.1941 104.361 15.1486 104.462 15.0298C104.555 14.9209 104.566 14.8318 104.561 14.7051C104.479 13.0301 102.909 12.2005 101.646 12.2005V12.1985ZM99.5256 14.6932C99.777 13.5033 100.49 12.5727 101.496 12.5727C102.292 12.5727 103.034 13.2063 103.099 14.6932H99.5256Z" fill="#231815"/>
<path d="M43.6556 12.1985C41.642 12.1985 40.0383 13.929 40.0383 16.0653C40.0383 18.3759 41.5965 19.9321 43.7111 19.9321C44.7367 19.9321 45.5999 19.4728 46.1939 18.7402C46.4434 18.4313 46.4672 18.3264 46.3602 18.2314C46.2593 18.1403 46.1345 18.2393 45.794 18.4828C45.3327 18.8115 44.6793 18.9996 44.1506 18.9996C43.1428 18.9996 41.9786 18.3205 41.5985 16.9107C41.446 16.3445 41.4045 15.7525 41.4599 15.1941H46.1405C46.2751 15.1941 46.3721 15.1486 46.4731 15.0298C46.5662 14.9209 46.578 14.8318 46.5721 14.7051C46.4909 13.0301 44.9208 12.2005 43.6576 12.2005L43.6556 12.1985ZM41.5351 14.6932C41.7886 13.5033 42.4994 12.5727 43.5052 12.5727C44.3011 12.5727 45.0436 13.2063 45.1089 14.6932H41.5351Z" fill="#231815"/>
<path d="M56.5431 12.1985C54.5453 12.1985 52.9257 13.929 52.9257 16.0653C52.9257 18.2017 54.5453 19.9321 56.5431 19.9321C58.5408 19.9321 60.1604 18.2017 60.1604 16.0653C60.1604 13.929 58.5408 12.1985 56.5431 12.1985ZM56.5431 19.5579C55.5095 19.5579 54.6047 18.3264 54.6047 16.0653C54.6047 13.8042 55.5095 12.5727 56.5431 12.5727C57.5766 12.5727 58.4755 13.8042 58.4755 16.0653C58.4755 18.3264 57.5746 19.5579 56.5431 19.5579Z" fill="#231815"/>
<path d="M39.868 19.3459C39.8383 19.342 39.8047 19.338 39.7671 19.3341C39.2087 19.2667 38.7395 19.0014 38.3712 18.5777L33.2174 12.632L36.5932 9.7076C37.11 9.26014 37.6901 9.02848 38.3474 8.94335C38.4643 8.92751 38.5633 8.91365 38.6365 8.90375C38.7276 8.89187 38.789 8.83049 38.789 8.75525V8.51172C37.4486 8.58498 36.0883 8.58498 34.7479 8.51172V8.75525C34.7479 8.83247 34.8093 8.89187 34.9004 8.90375C35.0528 8.92553 35.328 8.96314 35.6349 8.9968C35.9893 9.0364 35.9121 9.25221 35.7656 9.39081L31.4969 13.4418V9.94915C31.4969 9.28983 31.8671 8.99284 32.2908 8.93146C32.368 8.91959 32.4353 8.90969 32.4868 8.90375C32.5759 8.88989 32.6314 8.82851 32.6314 8.75525V8.51172C31.3741 8.58498 29.998 8.58498 28.7408 8.51172V8.75525C28.7408 8.83049 28.7962 8.89187 28.8853 8.90375C28.9368 8.91167 29.0041 8.92157 29.0813 8.93146C29.5031 8.99086 29.8753 9.28983 29.8753 9.94915V18.2986C29.8753 18.9579 29.5031 19.2549 29.0813 19.3162C29.0041 19.3281 28.9368 19.338 28.8833 19.3459C28.7942 19.3598 28.7388 19.4212 28.7388 19.4944V19.738C29.9961 19.6647 31.3721 19.6647 32.6294 19.738V19.4944C32.6294 19.4192 32.5739 19.3578 32.4848 19.3459C32.4334 19.338 32.366 19.3281 32.2888 19.3162C31.8671 19.2568 31.4969 18.9579 31.4969 18.2986V14.1248L31.9522 13.7308L36.3932 18.8549C36.5437 19.0292 36.5893 19.243 36.2309 19.2826C35.9933 19.3083 35.7933 19.3341 35.6725 19.3479C35.5834 19.3598 35.526 19.4192 35.526 19.4944V19.738C37.0347 19.6647 38.5078 19.6647 40.0165 19.738V19.4944C40.0165 19.4192 39.9591 19.3598 39.87 19.3479L39.868 19.3459Z" fill="#231815"/>
<path d="M72.2559 8.50979V8.75333C72.2559 8.83252 72.2975 8.88796 72.4044 8.9038C72.4895 8.91568 72.6142 8.93548 72.7608 8.95528C73.3211 9.03052 73.7527 9.20079 73.7527 12.1984V15.8672C73.7527 17.9145 72.3806 18.9322 70.7056 18.9322C69.0305 18.9322 67.7317 18.0115 67.7317 15.8672V9.94723C67.7317 9.28791 68.102 8.99092 68.5237 8.92954C68.6009 8.91766 68.6682 8.90776 68.7197 8.90182C68.8088 8.88796 68.8642 8.82658 68.8642 8.75333V8.50979C67.607 8.58305 66.1299 8.58305 64.8727 8.50979V8.75333C64.8727 8.82856 64.9281 8.88994 65.0172 8.90182C65.0687 8.90974 65.136 8.91964 65.2152 8.92954C65.6369 8.98894 66.0092 9.28791 66.0092 9.94723V15.7029C66.0092 18.9797 68.001 19.9301 70.2918 19.9301C72.5826 19.9301 74.5486 18.7481 74.5486 15.7029V12.1964C74.5486 9.19683 74.9803 9.02854 75.5406 8.9533C75.6871 8.9335 75.8118 8.91568 75.897 8.90182C76.0039 8.88598 76.0455 8.83054 76.0455 8.75135V8.50781C74.7882 8.58107 73.5112 8.58107 72.2539 8.50781L72.2559 8.50979Z" fill="#231815"/>
<path d="M94.8985 12.3945V12.6381C94.8985 12.7113 94.9717 12.7767 95.043 12.7866C95.1519 12.8024 95.2746 12.8281 95.4093 12.8539C95.7043 12.9113 95.8488 13.0895 95.7379 13.4083L94.2055 17.7839L92.5997 13.3726C92.4849 13.0578 92.6294 12.8776 92.9225 12.8301C93.0294 12.8123 93.1244 12.7965 93.1997 12.7866C93.2709 12.7767 93.3442 12.7093 93.3442 12.6381V12.3945C92.0869 12.4678 91.2712 12.4678 90.0139 12.3945V12.6381C90.0139 12.7113 90.0872 12.7767 90.1585 12.7866C90.1743 12.7885 90.1921 12.7925 90.21 12.7945C90.7287 12.8757 90.9584 13.0736 91.1326 13.5587L93.4531 19.9322H93.952L96.526 13.5805C96.6982 13.1548 96.9002 12.9113 97.4684 12.8064C97.504 12.8004 97.5397 12.7945 97.5753 12.7885C97.6466 12.7786 97.7199 12.7113 97.7199 12.64V12.3965C96.4626 12.4698 96.1577 12.4698 94.9004 12.3965L94.8985 12.3945Z" fill="#231815"/>
<path d="M110.886 12.2261C110.015 12.0716 109.128 12.5706 108.536 13.3863V12.4498C108.536 12.3468 108.514 12.2756 108.437 12.23C108.338 12.1706 108.273 12.2023 108.18 12.2478L106.123 13.2556C106.032 13.3012 106.006 13.3665 106.016 13.4497C106.024 13.5388 106.057 13.5942 106.168 13.6239L106.582 13.7387C106.933 13.8358 107.065 14.0575 107.065 14.7881V18.3876C107.065 18.9777 106.748 19.243 106.329 19.3024C106.22 19.3182 106.129 19.3301 106.061 19.34C105.972 19.3538 105.917 19.4152 105.917 19.4885V19.732C107.174 19.6588 108.625 19.6588 109.883 19.732V19.4885C109.883 19.4132 109.827 19.3519 109.738 19.34C109.671 19.3301 109.58 19.3162 109.471 19.3024C108.851 19.2153 108.534 19.0054 108.534 18.3876V14.9287C108.534 13.5427 109.051 12.9804 110.15 13.4912C110.91 13.8457 111.342 13.7407 111.554 13.2061C111.756 12.6953 111.387 12.3112 110.884 12.2241L110.886 12.2261Z" fill="#231815"/>
<path d="M115.129 15.1941C114.343 14.6813 113.765 14.3665 113.765 13.6874C113.765 13.0994 114.139 12.6123 114.813 12.6123C115.486 12.6123 116.072 13.4458 116.323 14.0141C116.357 14.0893 116.42 14.1408 116.498 14.123C116.608 14.0972 116.638 14.0418 116.638 13.9587V12.5331C115.973 12.2658 115.211 12.1985 114.813 12.1985C114.033 12.1985 112.589 12.7014 112.589 14.0735C112.589 15.0575 113.066 15.6475 114.149 16.3663C114.924 16.8791 115.939 17.3067 115.939 18.2234C115.939 19.0273 115.183 19.4946 114.553 19.4946C113.607 19.4946 113.009 18.5383 112.759 17.4513C112.734 17.3364 112.662 17.3008 112.565 17.2909C112.46 17.279 112.409 17.3364 112.385 17.4671C112.352 17.6512 112.07 18.859 112.07 18.859C112.468 19.3619 113.54 19.9301 114.537 19.9301C115.947 19.9301 117.169 19.1936 117.169 17.6869C117.169 16.3861 116.127 15.8436 115.129 15.1922V15.1941Z" fill="#231815"/>
<path d="M128.043 18.8669C127.726 19.0094 127.346 19.1956 126.944 19.1956C126.201 19.1956 125.797 18.756 125.797 17.8631V13.0716H127.611C127.874 13.0716 127.906 12.9746 127.906 12.6835V12.4479H125.797V11.1491C125.797 10.961 125.803 10.8481 125.706 10.7927C125.615 10.7392 125.534 10.7432 125.441 10.8264L123.384 12.6558C123.293 12.737 123.275 12.7825 123.275 12.8954C123.283 12.9805 123.317 13.0419 123.429 13.0716L123.845 13.1805C124.196 13.2716 124.314 13.5032 124.314 14.1982V18.1799C124.314 19.6905 125.597 19.9301 126.231 19.9301C126.865 19.9301 127.593 19.7222 128.177 19.3064C128.518 19.0629 128.599 18.9322 128.53 18.8273C128.433 18.6828 128.342 18.7323 128.045 18.8669H128.043Z" fill="#231815"/>
<path d="M133.181 12.3945V12.6381C133.181 12.7113 133.254 12.7767 133.325 12.7866C133.434 12.8024 133.557 12.8281 133.691 12.8539C133.986 12.9113 134.131 13.0895 134.02 13.4083L132.488 17.7839L130.882 13.3726C130.767 13.0578 130.912 12.8776 131.205 12.8301C131.311 12.8123 131.407 12.7965 131.482 12.7866C131.553 12.7767 131.626 12.7093 131.626 12.6381V12.3945C130.369 12.4678 129.728 12.4678 128.47 12.3945V12.6381C128.47 12.7113 128.544 12.7767 128.615 12.7866C128.631 12.7885 128.648 12.7925 128.666 12.7945C129.159 12.8717 129.264 13.1449 129.415 13.5587L131.65 19.7025L131.557 19.9322L130.818 21.7557C130.569 22.3734 130.298 22.4308 129.739 22.4487C129.181 22.4665 129.011 22.7714 129.011 23.1001C129.011 23.5733 129.3 23.8148 129.821 23.8148C130.367 23.8148 130.826 23.399 131.042 22.8664L134.806 13.5785C134.978 13.1528 135.18 12.9093 135.749 12.8044C135.784 12.7984 135.82 12.7925 135.855 12.7866C135.927 12.7767 136 12.7093 136 12.6381V12.3945C134.743 12.4678 134.438 12.4678 133.183 12.3945H133.181Z" fill="#231815"/>
<path d="M85.1077 19.3479C85.0403 19.338 84.9493 19.3241 84.8404 19.3103C84.4206 19.2528 84.1038 18.9856 84.1038 18.3955V14.9089C84.1038 13.4417 83.5396 12.2043 81.8566 12.2043C80.734 12.2043 79.8569 12.626 79.2886 13.3724V12.4518C79.2886 12.3488 79.2688 12.2775 79.1936 12.232C79.0966 12.1726 79.0471 12.2043 78.954 12.2498L76.8949 13.2516C76.8038 13.2952 76.78 13.3625 76.786 13.4457C76.7939 13.5348 76.8276 13.5902 76.9384 13.6219L77.3522 13.7367C77.7027 13.8338 77.8294 14.0575 77.8274 14.7881V18.3876C77.8274 18.9776 77.5047 19.2429 77.085 19.3004C76.9761 19.3142 76.885 19.3281 76.8177 19.338C76.7286 19.3499 76.6731 19.4112 76.6731 19.4865C76.6731 19.5617 76.6731 19.6548 76.6731 19.73C77.9304 19.6607 79.1579 19.6647 80.4152 19.7399C80.4152 19.6647 80.4152 19.5716 80.4152 19.4964C80.4152 19.4211 80.3598 19.3598 80.2707 19.3459C80.2034 19.336 80.1123 19.3221 80.0034 19.3063C79.5995 19.2489 79.2866 18.9776 79.2886 18.3896V14.9049C79.2886 13.7843 79.9638 12.8794 81.0686 12.8794C82.3674 12.8794 82.6327 13.9308 82.6327 14.9049V18.3916C82.6327 18.9796 82.312 19.2489 81.9101 19.3063C81.8012 19.3221 81.7101 19.334 81.6428 19.3439C81.5537 19.3578 81.4982 19.4192 81.4982 19.4924V19.7359C82.7555 19.6627 83.9949 19.6627 85.2522 19.7359V19.4924C85.2522 19.4172 85.1968 19.3558 85.1077 19.3439V19.3479Z" fill="#231815"/>
<path d="M89.8476 19.3439C89.7803 19.334 89.6892 19.3202 89.5803 19.3063C89.1606 19.2469 88.8438 18.9816 88.8438 18.3916V12.4518C88.8438 12.3488 88.8161 12.2775 88.7408 12.232C88.6419 12.1726 88.5567 12.2043 88.4617 12.2498L86.4045 13.2576C86.3134 13.3031 86.2897 13.3685 86.2976 13.4516C86.3055 13.5407 86.3392 13.5962 86.4501 13.6259L86.8639 13.7407C87.2143 13.8377 87.347 14.0595 87.347 14.7901V18.3896C87.347 18.9796 87.0302 19.2449 86.6104 19.3043C86.5015 19.3202 86.4105 19.332 86.3431 19.3419C86.256 19.3558 86.1986 19.4172 86.1986 19.4904V19.734C87.4559 19.6607 88.7329 19.6607 89.9902 19.734V19.4904C89.9902 19.4152 89.9348 19.3538 89.8457 19.3419L89.8476 19.3439Z" fill="#231815"/>
<path d="M88.0954 10.4065C88.6181 10.4065 89.0438 9.98284 89.0438 9.45816C89.0438 8.93347 88.6201 8.50977 88.0954 8.50977C87.5707 8.50977 87.147 8.93347 87.147 9.45816C87.147 9.98284 87.5707 10.4065 88.0954 10.4065Z" fill="#231815"/>
<path d="M22.1417 7.36136C21.6546 5.66851 22.2802 2.7283 23.1277 1.04535L22.7634 0.681045L19.6667 3.77767C19.841 4.08852 19.7954 4.48847 19.5321 4.75378C19.2133 5.07255 18.6946 5.07255 18.3758 4.75378C18.057 4.43501 18.057 3.91825 18.3758 3.59947C18.6411 3.33416 19.0411 3.2906 19.3499 3.46484L22.4466 0.366235L22.0823 0.00390625C20.4013 0.84934 17.4571 1.475 15.7682 0.987936L11.9073 5.44082L17.2492 11.6044L22.1417 7.36334V7.36136Z" fill="#FDD000"/>
<path d="M1.31072 17.6669C0.817714 18.2352 0.597941 18.9895 0.704857 19.736C0.902851 21.1298 1.99776 22.2228 3.39163 22.4227C4.13609 22.5297 4.89243 22.3099 5.46067 21.8169L11.1688 16.871L5.9319 12.335L1.31072 17.6669Z" fill="#FDD000"/>
<path d="M7.35943 0.986009C5.66856 1.47307 2.72638 0.847414 1.04343 0L0.679119 0.364309L3.77574 3.46093C4.08659 3.2867 4.48654 3.33224 4.74987 3.59557C5.06864 3.91434 5.06864 4.4311 4.74987 4.74987C4.4311 5.06864 3.91434 5.06864 3.59557 4.74987C3.33026 4.48654 3.2867 4.08461 3.46093 3.77376L0.364309 0.677139L0 1.04145C0.845434 2.72242 1.47109 5.66658 0.98403 7.35745L17.665 21.815C18.2333 22.308 18.9896 22.5277 19.734 22.4208C21.1279 22.2228 22.2228 21.1279 22.4208 19.7321C22.5277 18.9876 22.308 18.2333 21.815 17.663L7.35943 0.986009Z" fill="#FDD000"/>
</svg>
